<?xml version="1.0" encoding="UTF-8" standalone="no"?>
<!-- Created with Inkscape (http://www.inkscape.org/) -->

<svg
   xmlns:dc="http://purl.org/dc/elements/1.1/"
   xmlns:cc="http://creativecommons.org/ns#"
   xmlns:rdf="http://www.w3.org/1999/02/22-rdf-syntax-ns#"
   xmlns:svg="http://www.w3.org/2000/svg"
   xmlns="http://www.w3.org/2000/svg"
   xmlns:sodipodi="http://sodipodi.sourceforge.net/DTD/sodipodi-0.dtd"
   xmlns:inkscape="http://www.inkscape.org/namespaces/inkscape"
   width="642.19"
   height="642.18774"
   id="svg2"
   version="1.1"
   inkscape:version="0.48.4 r9939"
   sodipodi:docname="lightbulb.svg"
   inkscape:export-filename="/media/quentin/ESO/Firefox/addon-sdk/enlight/data/lightbulb_off-64.png"
   inkscape:export-xdpi="8.9700003"
   inkscape:export-ydpi="8.9700003">
  <defs
     id="defs4" />
  <sodipodi:namedview
     id="base"
     pagecolor="#ffffff"
     bordercolor="#666666"
     borderopacity="1.0"
     inkscape:pageopacity="0.0"
     inkscape:pageshadow="2"
     inkscape:zoom="0.51626137"
     inkscape:cx="73.143304"
     inkscape:cy="125.54754"
     inkscape:document-units="px"
     inkscape:current-layer="layer1"
     showgrid="false"
     inkscape:window-width="1600"
     inkscape:window-height="849"
     inkscape:window-x="-2"
     inkscape:window-y="-3"
     inkscape:window-maximized="1"
     fit-margin-top="0"
     fit-margin-left="0"
     fit-margin-right="0"
     fit-margin-bottom="0"
     inkscape:snap-midpoints="true"
     inkscape:snap-page="true"
     inkscape:snap-object-midpoints="true"
     inkscape:snap-bbox="true"
     inkscape:snap-bbox-midpoints="true"
     inkscape:snap-nodes="true"
     inkscape:snap-grids="false"
     inkscape:snap-to-guides="false" />
  <metadata
     id="metadata7">
    <rdf:RDF>
      <cc:Work
         rdf:about="">
        <dc:format>image/svg+xml</dc:format>
        <dc:type
           rdf:resource="http://purl.org/dc/dcmitype/StillImage" />
        <dc:title></dc:title>
      </cc:Work>
    </rdf:RDF>
  </metadata>
  <g
     inkscape:label="Layer 1"
     inkscape:groupmode="layer"
     id="layer1"
     transform="translate(-174.73873,-222.65557)">
    <path
       style="fill:#797c80;fill-opacity:1;stroke:none"
       d="M 321.71875 0 C 303.80002 0.00915 285.74653 2.35444 269.5 7.0625 C 190.42995 29.9761 135.98285 98.97457 133.375 179.5625 C 132.53658 205.47142 136.01421 227.73698 144.6875 252.25 C 148.31733 262.50885 166.37656 300.10009 175.84375 317.09375 C 186.93182 336.99688 203.62034 368.44045 206.8125 375.4375 C 212.29589 387.45681 215.836 394.68762 217.03125 409.65625 C 218.18377 424.08969 220.63694 434.63314 224.75 442.75 C 229.10522 451.11125 234.76031 451.98796 240.46875 459.28125 C 298.83211 481.24983 348.90571 483.03569 403.125 459.9375 C 405.36639 459.35137 416.30068 451.97544 420.46875 443.6875 C 424.07935 436.50804 425.82907 428.30503 427.09375 412.40625 C 428.49 394.85332 429.5625 395.2707 432.6875 385.25 C 435.68507 375.63793 450.7596 344.29329 462.34375 323.53125 C 481.39751 289.38156 495.12748 260.63226 500.125 244.4375 C 516.01151 192.95629 510.29745 139.30051 484.0625 93.5625 C 459.51452 50.76556 422.31435 21.76364 373.09375 7.03125 C 357.41867 2.33949 339.63748 -0.00915 321.71875 0 z M 355.5625 50.875 C 423.45686 68.54842 445.8434 107.08892 455.96875 151.21875 C 444.86465 174.60179 433.76035 166.68476 422.65625 158.15625 C 402.31255 105.44881 390.83148 97.39312 337.96875 78.1875 C 329.36563 60.04735 340.70922 54.3549 355.5625 50.875 z M 403.09375 492.375 C 350.63163 518.85932 297.63744 518.42833 241.03125 492.59375 C 244.15891 501.3249 257.20123 511.09131 242.71875 517.96875 C 224.13944 526.90748 222.08072 535.42687 244.375 543.34375 C 257.11986 550.49808 261.79467 558.50996 246.03125 568.71875 C 236.39304 573.15539 220.17738 574.98095 247.71875 594.09375 C 250.16936 598.86274 270.27322 617.41757 273.1875 617.59375 C 274.91224 617.69802 289.08486 633.22486 290.1875 636.21875 C 291.46495 639.68731 294.94569 640.97783 304.59375 641.59375 C 326.59646 642.99837 347.99952 641.80024 351.09375 639 C 352.18645 638.01112 353.09375 636.70212 353.09375 636.0625 C 353.09375 635.42289 356.47433 631.60242 360.59375 627.59375 C 364.71316 623.58508 369.31729 618.88522 370.84375 617.15625 C 372.37022 615.42728 374.95212 613.15336 376.59375 612.09375 C 381.82837 608.71497 403.09375 587.2794 403.09375 585.375 C 391.96729 577.62666 394.88263 569.87334 403.09375 562.125 C 429.30131 549.17523 404.95408 546.42967 403.09375 538.875 C 390.0277 529.67488 398.70566 522.88577 403.09375 515.625 C 429.69441 502.55653 409.67026 498.80804 403.09375 492.375 z "
       id="path3854"
       transform="translate(174.73873,222.65557)" />
  </g>
</svg>
